<svg width="32" height="33" viewBox="0 0 32 33" fill="none" xmlns="http://www.w3.org/2000/svg">
<g id="Group 155628">
<path id="Vector" d="M5.33398 10.9779C5.33398 9.56338 5.89589 8.20682 6.89608 7.20663C7.89628 6.20643 9.25283 5.64453 10.6673 5.64453H21.334C22.7485 5.64453 24.105 6.20643 25.1052 7.20663C26.1054 8.20682 26.6673 9.56338 26.6673 10.9779V21.6445C26.6673 23.059 26.1054 24.4156 25.1052 25.4158C24.105 26.416 22.7485 26.9779 21.334 26.9779H10.6673C9.25283 26.9779 7.89628 26.416 6.89608 25.4158C5.89589 24.4156 5.33398 23.059 5.33398 21.6445V10.9779Z" stroke="white" stroke-width="2" stroke-linecap="round" stroke-linejoin="round"/>
<path id="Vector_2" d="M12 16.3115C12 17.3724 12.4214 18.3898 13.1716 19.14C13.9217 19.8901 14.9391 20.3115 16 20.3115C17.0609 20.3115 18.0783 19.8901 18.8284 19.14C19.5786 18.3898 20 17.3724 20 16.3115C20 15.2507 19.5786 14.2332 18.8284 13.4831C18.0783 12.733 17.0609 12.3115 16 12.3115C14.9391 12.3115 13.9217 12.733 13.1716 13.4831C12.4214 14.2332 12 15.2507 12 16.3115Z" stroke="white" stroke-width="2" stroke-linecap="round" stroke-linejoin="round"/>
<path id="Vector_3" d="M22 10.3115V10.3249" stroke="white" stroke-width="2" stroke-linecap="round" stroke-linejoin="round"/>
</g>
</svg>
